<?xml version="1.0" encoding="UTF-8" standalone="no"?>
<!-- Created with Inkscape (http://www.inkscape.org/) -->

<svg
   width="12.896294mm"
   height="10.005707mm"
   viewBox="0 0 12.896294 10.005707"
   version="1.1"
   id="svg5"
   inkscape:version="1.2.2 (b0a8486, 2022-12-01)"
   sodipodi:docname="Logo - Moments of Love.svg"
   xml:space="preserve"
   xmlns:inkscape="http://www.inkscape.org/namespaces/inkscape"
   xmlns:sodipodi="http://sodipodi.sourceforge.net/DTD/sodipodi-0.dtd"
   xmlns="http://www.w3.org/2000/svg"
   xmlns:svg="http://www.w3.org/2000/svg"><sodipodi:namedview
     id="namedview7"
     pagecolor="#ffffff"
     bordercolor="#424242"
     borderopacity="1"
     inkscape:showpageshadow="false"
     inkscape:pageopacity="0"
     inkscape:pagecheckerboard="false"
     inkscape:deskcolor="#707070"
     inkscape:document-units="mm"
     showgrid="false"
     inkscape:zoom="2.4153179"
     inkscape:cx="159.81333"
     inkscape:cy="557.06952"
     inkscape:window-width="1680"
     inkscape:window-height="997"
     inkscape:window-x="0"
     inkscape:window-y="25"
     inkscape:window-maximized="1"
     inkscape:current-layer="Layer_1-2-0-9-0"
     shape-rendering="crispEdges"
     showborder="true" /><defs
     id="defs2"><style
       id="style24461">.cls-1{fill:#ffffff;}</style></defs><g
     inkscape:label="Ebene 1"
     inkscape:groupmode="layer"
     id="layer1"
     transform="translate(-116.30456,-204.34805)"><g
       id="Layer_1-2-0-9-0"
       data-name="Layer 1"
       transform="matrix(0.07790051,0,0,0.07223853,62.285937,99.199765)"
       style="stroke:#364575;stroke-opacity:1"><path
         d="m 735.86309,1506.068 c 3.72564,-3.7201 6.68266,-6.9802 9.93575,-9.8558 5.54593,-4.9049 11.79481,-6.9001 18.95389,-5.3526 20.93948,8.0347 30.83273,24.6577 21.26572,45.4111 -3.20811,6.9093 -7.0036,13.5096 -10.39791,20.3465 -4.69563,9.3717 -7.47455,19.208 -7.08888,29.8512 0.0731,2.0925 -0.86568,4.2599 -1.2457,5.9579 -2.59565,1.5753 -4.47848,1.8389 -6.25528,-0.061 -1.03283,-1.0705 -2.24928,-1.9464 -3.32164,-2.9796 -4.68441,-4.476 -10.1539,-7.5985 -15.8613,-10.3672 -8.53009,-4.1241 -17.26995,-7.7749 -25.45005,-12.6383 -6.79121,-4.004 -12.61534,-9.5954 -17.04916,-16.3679 -5.00158,-7.686 -6.84726,-16.5081 -4.58386,-26.1839 2.58906,-11.1127 15.01106,-24.2576 29.85462,-22.4903 3.03509,0.3605 5.90835,2.0326 8.80623,3.2047 0.85826,0.4239 1.67443,0.9347 2.43757,1.5256 z"
         id="path24465-9-8-9-3-2"
         style="fill:#ffffff;fill-opacity:1;stroke:#000000;stroke-width:0.7594;stroke-opacity:0"
         sodipodi:nodetypes="scccccccccccccccs"
         inkscape:export-filename="path24465-9-8-9-3.png"
         inkscape:export-xdpi="400"
         inkscape:export-ydpi="400" /><path
         d="m 807.97567,1475.6714 c 6.08362,-1.056 11.10217,-2.1933 16.18393,-2.7528 8.66509,-0.9568 16.24709,1.3991 22.56541,7.8256 11.40003,11.7339 14.35157,25.2731 9.70308,40.7257 -2.5634,8.5115 -8.972,13.7829 -16.1478,18.0521 -7.52781,4.5131 -15.46178,8.3221 -23.13405,12.6367 -10.56057,5.885 -19.4604,13.539 -25.64331,24.1539 -1.21854,2.0848 -3.51116,3.5471 -4.94634,4.9372 -3.61045,-0.2527 -5.68648,-1.2907 -6.31832,-4.3596 -0.38811,-1.7512 -1.08313,-3.439 -1.53441,-5.181 -1.99478,-7.5729 -5.62327,-14.3695 -9.71209,-20.9857 -6.11969,-9.8746 -12.74485,-19.4333 -18.0522,-29.7862 -4.42694,-8.5627 -6.89057,-18.004 -7.21185,-27.638 -0.33395,-10.9125 3.24037,-20.7597 11.5173,-28.6126 9.49545,-9.026 30.23745,-13.2683 44.228,-1.3448 2.8613,2.4371 4.74777,6.0383 6.96818,9.1705 0.61027,1.0021 1.12407,2.0598 1.53447,3.159 z"
         id="path24465-7-3-6-0-3-9"
         style="fill:#ffffff;fill-opacity:1;stroke:#996699;stroke-width:0.90261;stroke-opacity:0.797015"
         sodipodi:nodetypes="ccccccccccccccccc" /></g></g></svg>
